<svg viewBox="8.45 8.5 283.1 283.07" xmlns="http://www.w3.org/2000/svg"><path d="M202.9 120.4 156 82.2c-3.5-2.9-8.6-2.9-12.1 0L97 120.5c-1.9 1.5-1.9 4.5 0 6l14.7 12c2.1 1.7 5.1 1.7 7.3 0l30.9-25.2 30.9 25.3c2.1 1.7 5.1 1.7 7.3 0l14.7-12c2-1.7 2-4.6.1-6.2z" style="fill:#315bf0;fill-opacity:1"/><path d="m249.9 158.9 40.2-32.7c1.9-1.5 1.9-4.5 0-6L156 10.7c-3.5-2.9-8.6-2.9-12.1 0L9.9 120c-1.9 1.5-1.9 4.5 0 6l40.2 32.8-40.2 32.8c-1.9 1.5-1.9 4.5 0 6L124 290.7c2.5 2 6.2.3 6.2-3V193c0-2.9-1.3-5.7-3.6-7.5L94 158.9 72 141l-19-15.7c-1.4-1.1-1.4-3.3 0-4.5l93.4-76.2c2.1-1.7 5.1-1.7 7.3 0l93.4 76.2c1.4 1.1 1.4 3.3 0 4.5L228 140.9l-22.1 18-32.6 26.6c-2.3 1.8-3.6 4.6-3.6 7.5v94.7c0 3.2 3.8 5 6.2 3L290 197.6c1.9-1.5 1.9-4.5 0-6l-40.1-32.7zm-176 19.4 26.7 21.8c1.3 1.1 2.2 2.8 2.2 4.5v28.8c0 1.6-1.9 2.6-3.1 1.5L53 196.8c-1.4-1.1-1.4-3.3 0-4.5l17.3-14.1c1-.9 2.5-.9 3.6.1zm123.4 55.1v-28.8c0-1.7.8-3.4 2.2-4.5l26.7-21.8c1-.9 2.5-.9 3.6 0l17.3 14.1c1.4 1.1 1.4 3.3 0 4.5L200.4 235c-1.3.9-3.1.1-3.1-1.6z" style="fill:#315bf0;fill-opacity:1"/></svg>